<?xml version="1.0" encoding="UTF-8"?>
<svg id="Layer_1" data-name="Layer 1" xmlns="http://www.w3.org/2000/svg" width="396.01" height="101.12" viewBox="0 0 396.01 101.12">
  <defs>
    <style>
      .cls-1 {
        fill: none;
        stroke: #7a7ebc;
        stroke-miterlimit: 10;
      }

      .cls-2 {
        fill: #7a7ebc;
      }
    </style>
  </defs>
  <path class="cls-2" d="M50.55,0C22.63,0,0,22.64,0,50.56s22.63,50.56,50.55,50.56,50.56-22.64,50.56-50.56S78.47,0,50.55,0ZM73.12,53.78c-7.12,5.51-7.94,7.05-10.01,7.11-7.35.23-12.72-13.76-14.67-12.89-1.96.88,5.1,14.26-.2,21.37-2.42,3.24-6.66,4.19-9.8,4.5-1.8-1.34-10.8-8.3-12.66-20.97-1.55-10.48,2.72-18.42,4.11-20.77,6.71-.44,16.07-.34,26.89,2.1,11.73,2.64,20.82,7.04,26.88,10.58-2.93,2.74-6.44,5.79-10.54,8.97Z"/>
  <g>
    <g>
      <path class="cls-2" d="M168.77,48.4c0,5.04-1.06,9.49-3.17,13.36-2.11,3.87-5.13,6.85-9.06,8.96-3.93,2.1-8.45,3.15-13.58,3.15h-21.03V24.19h20.58c17.51,0,26.26,8.07,26.26,24.22ZM152.87,48.54c0-2.43-.49-4.61-1.47-6.55-.98-1.94-2.39-3.44-4.21-4.5-1.82-1.06-3.97-1.59-6.44-1.59h-3.85v26.26h4.19c3.58,0,6.44-1.23,8.58-3.69,2.14-2.46,3.2-5.77,3.2-9.93Z"/>
      <path class="cls-2" d="M213.88,55.51c0,5.98-1.81,10.68-5.42,14.1-3.62,3.42-8.67,5.13-15.16,5.13s-11.46-1.67-15.05-5.01c-3.59-3.34-5.39-7.94-5.39-13.81,0-3.76.84-7.03,2.53-9.81,1.69-2.77,4.09-4.9,7.21-6.37,3.12-1.48,6.71-2.22,10.78-2.22s7.85.77,10.93,2.32c3.08,1.55,5.45,3.7,7.1,6.44,1.65,2.75,2.48,5.82,2.48,9.22ZM198.91,55.57c0-4.83-1.85-7.24-5.54-7.24s-5.54,2.53-5.54,7.59c0,5.33,1.87,8,5.61,8s5.47-2.78,5.47-8.35Z"/>
      <path class="cls-2" d="M248.22,62.09c0,4.02-1.53,7.13-4.59,9.34s-7.33,3.31-12.8,3.31c-1.59,0-3.56-.16-5.91-.49s-4.26-.72-5.73-1.18v-10.36c4.37,1.94,8.01,2.91,10.95,2.91s4.33-.75,4.33-2.25c0-.62-.33-1.14-1-1.54-.67-.4-2.42-1.08-5.27-2.03-3.14-.99-5.43-2.31-6.86-3.95-1.43-1.64-2.15-3.78-2.15-6.41,0-3.67,1.46-6.58,4.38-8.71,2.92-2.14,7.03-3.2,12.32-3.2,3.09,0,6.38.45,9.84,1.35v9.94c-1.46-.62-3.05-1.14-4.78-1.56-1.73-.42-3.19-.62-4.37-.62-.97,0-1.74.16-2.32.48-.58.32-.87.77-.87,1.35,0,.67.31,1.21.94,1.63.62.42,1.87.91,3.74,1.49,3.63,1.06,6.22,2.42,7.79,4.09s2.36,3.8,2.36,6.41Z"/>
      <path class="cls-2" d="M278.63,73.38c-.67.32-1.77.63-3.29.92s-3.36.43-5.51.43c-4.11,0-7.33-1.13-9.65-3.4s-3.48-5.49-3.48-9.67v-13.06h-5.58v-10.22h5.58v-6.96l14.55-4.02v10.98h7.38v10.22h-7.38v10.64c0,3.12,1.24,4.68,3.71,4.68,1.16,0,2.38-.25,3.67-.76v10.22Z"/>
      <path class="cls-2" d="M298.87,28.83c0,2.08-.76,3.77-2.27,5.06s-3.5,1.94-5.98,1.94-4.37-.67-5.91-2.01c-1.54-1.34-2.3-3-2.3-4.99s.75-3.68,2.24-4.94c1.49-1.26,3.48-1.89,5.98-1.89s4.46.63,5.98,1.89c1.51,1.26,2.27,2.9,2.27,4.94ZM283.24,73.87v-35.48h14.76v35.48h-14.76Z"/>
      <path class="cls-2" d="M332.44,32.08c-1.52-.53-2.94-.8-4.26-.8-1.64,0-2.85.42-3.64,1.26-.79.84-1.18,1.98-1.18,3.41v2.43h8.21v10.22h-8.21v25.26h-14.76v-25.26h-5.96v-10.22h5.96v-3.26c0-2.89.67-5.43,2.01-7.64,1.34-2.21,3.29-3.92,5.84-5.14,2.55-1.22,5.65-1.84,9.3-1.84,2.63,0,4.86.25,6.69.76v10.81Z"/>
      <path class="cls-2" d="M342.59,90.53c-1.39,0-2.88-.12-4.47-.36-1.59-.24-3.01-.59-4.26-1.06v-11.12c.58.44,1.44.84,2.58,1.21,1.14.37,2.22.55,3.24.55,2.75,0,4.57-1.09,5.47-3.26l1.14-2.77-14.83-35.34h16.32l4.3,17.11c.83,3.19,1.28,5.33,1.35,6.44h.14c.07-.51.17-1.07.29-1.7.13-.62,1.92-7.91,5.39-21.86h14.34l-13.06,36.48c-1.96,5.59-4.39,9.6-7.29,12.02-2.9,2.43-6.45,3.64-10.65,3.64Z"/>
    </g>
    <g>
      <path class="cls-1" d="M395.51,45.89c0,4.14-3.35,7.5-7.5,7.5s-7.5-3.36-7.5-7.5,3.36-7.5,7.5-7.5,7.5,3.36,7.5,7.5Z"/>
      <path class="cls-2" d="M391.99,50.11h-1.68l-1.39-2.33c-.12-.21-.25-.4-.37-.55-.12-.15-.24-.28-.36-.37-.12-.1-.26-.17-.4-.21s-.31-.07-.49-.07h-.58v3.53h-1.44v-8.69h2.86c.41,0,.78.05,1.13.15.34.1.64.24.9.44.25.2.45.44.6.73.14.29.22.64.22,1.03,0,.31-.05.59-.14.85-.09.26-.22.48-.39.69-.17.2-.37.37-.61.51-.24.14-.5.25-.8.33v.02c.16.09.29.19.41.29.12.11.23.22.33.33.1.11.21.24.31.38.1.14.22.31.34.5l1.54,2.44ZM386.71,42.59v2.82h1.2c.22,0,.43-.03.62-.1.19-.07.35-.17.49-.3.14-.13.24-.29.32-.47.08-.19.12-.39.12-.62,0-.42-.13-.74-.39-.98-.26-.23-.64-.35-1.13-.35h-1.21Z"/>
    </g>
  </g>
</svg>